<svg xmlns:rdf="http://www.w3.org/1999/02/22-rdf-syntax-ns#" xmlns="http://www.w3.org/2000/svg" height="38" width="18" version="1.1" xmlns:cc="http://creativecommons.org/ns#" xmlns:dc="http://purl.org/dc/elements/1.1/" viewBox="0 0 18.000179 38">
<path style="fill:#aaaaaa" d="m9.0002 0.00022593a9.0002 9.0002 0 0 0 -9.0002 8.9998 9.0002 9.0002 0 0 0 9.0002 9 9.0002 9.0002 0 0 0 5.2098 -1.669l-1.498-1.497-0.67-0.671a6.0005 6.0005 0 0 1 -3.0427 0.837 6.0005 6.0005 0 0 1 -6 -6 6.0005 6.0005 0 0 1 6 -6.0004 6.0005 6.0005 0 0 1 3.043 0.83648l0.66993-0.66984 1.4935-1.494a9.0002 9.0002 0 0 0 -5.2055 -1.6725zm7.3308 3.7905l-1.4974 1.4974-0.67016 0.67007a6.0005 6.0005 0 0 1 0.63735 1.5422h-3.2072a3 3 0 0 0 -2.5929 -1.4995 3 3 0 0 0 -2.9997 2.9998 3 3 0 0 0 2.9997 2.9993 3 3 0 0 0 2.5949 -1.499h3.2034a6.0005 6.0005 0 0 1 -0.63474 1.5425l0.66989 0.66989 1.494 1.494a9.0002 9.0002 0 0 0 1.6727 -5.2062 9.0002 9.0002 0 0 0 -1.6691 -5.2093z"/>
<path d="m9.0002 20.001a9.0002 9.0002 0 0 0 -9.0002 9 9.0002 9.0002 0 0 0 9.0002 9.0002 9.0002 9.0002 0 0 0 5.2093 -1.6691l-1.498-1.498-0.67-0.67a6.0005 6.0005 0 0 1 -3.043 0.83657 6.0005 6.0005 0 0 1 -6 -6 6.0005 6.0005 0 0 1 6 -6.0004 6.0005 6.0005 0 0 1 3.043 0.83648l0.66993-0.66984 1.4935-1.494a9.0002 9.0002 0 0 0 -5.2055 -1.672zm7.3311 3.7904-1.4974 1.4974-0.67016 0.67007a6.0005 6.0005 0 0 1 0.63735 1.5422h-3.2072a3 3 0 0 0 -2.5939 -1.499 3 3 0 0 0 -2.9997 3 3 3 0 0 0 2.9997 3 3 3 0 0 0 2.5949 -1.5h3.2034a6.0005 6.0005 0 0 1 -0.63474 1.5425l0.66989 0.66989 1.494 1.494a9.0002 9.0002 0 0 0 1.6727 -5.2062 9.0002 9.0002 0 0 0 -1.6691 -5.2093z" style="fill:#dddddd"/>
</svg>
