<?xml version="1.0" encoding="UTF-8" standalone="no"?>
<svg xmlns:rdf="http://www.w3.org/1999/02/22-rdf-syntax-ns#" xmlns="http://www.w3.org/2000/svg" height="40" width="39.999" version="1.1" xmlns:cc="http://creativecommons.org/ns#" xmlns:dc="http://purl.org/dc/elements/1.1/" viewBox="0 0 40 40">
<path style="fill:#4d4d4d" d="m20 .00075a20 20 0 0 0 -20 19.999 20 20 0 0 0 20 20 20 20 0 0 0 11.576 -3.709l-3.327-3.327-1.489-1.49a13.334 13.334 0 0 1 -6.762 1.859 13.334 13.334 0 0 1 -13.333 -13.333 13.334 13.334 0 0 1 13.333 -13.334 13.334 13.334 0 0 1 6.762 1.8588l1.4887-1.4885 3.3187-3.3199a20 20 0 0 0 -11.569 -3.7164zm16.291 8.423-3.3274 3.3274-1.4892 1.489a13.334 13.334 0 0 1 1.4163 3.4271h-7.1269a6.6665 6.6665 0 0 0 -5.764 -3.332 6.6665 6.6665 0 0 0 -6.666 6.666 6.6665 6.6665 0 0 0 6.666 6.666 6.6665 6.6665 0 0 0 5.766 -3.333h7.1186a13.334 13.334 0 0 1 -1.4105 3.4277l1.4886 1.4886 3.3199 3.3199a20 20 0 0 0 3.717 -11.569 20 20 0 0 0 -3.709 -11.576z"/>
</svg>
