<svg xmlns:rdf="http://www.w3.org/1999/02/22-rdf-syntax-ns#" xmlns="http://www.w3.org/2000/svg" height="30" width="30" version="1.1" xmlns:cc="http://creativecommons.org/ns#" xmlns:dc="http://purl.org/dc/elements/1.1/" viewBox="0 0 30.000299 30">
<path style="fill:#444444" d="m15 0.00025026a15 15 0 0 0 -15 15 15 15 0 0 0 15 15 15 15 0 0 0 8.683 -2.782l-2.4953-2.4953-1.1168-1.1175a10.001 10.001 0 0 1 -5.0716 1.3943 10.001 10.001 0 0 1 -10 -10 10.001 10.001 0 0 1 10 -10.001 10.001 10.001 0 0 1 5.0716 1.3941l1.1166-1.1164 2.4891-2.49a15 15 0 0 0 -8.678 -2.7861zm12.219 6.3174-2.496 2.4956-1.117 1.1167a10.001 10.001 0 0 1 1.0623 2.5704h-5.3453a5 5 0 0 0 -4.3231 -2.4991 5 5 0 0 0 -4.9996 4.9996 5 5 0 0 0 4.9996 4.9996 5 5 0 0 0 4.3246 -2.4998h5.3391a10.001 10.001 0 0 1 -1.0579 2.5708l1.1165 1.1165 2.49 2.49a15 15 0 0 0 2.788 -8.677 15 15 0 0 0 -2.782 -8.6821z"/>
</svg>
