<svg viewBox="0 0 340 180" xmlns="http://www.w3.org/2000/svg" fill-rule="evenodd" clip-rule="evenodd" stroke-miterlimit="2"><path d="M195.956 115.956c14.059-14.059 36.853-14.059 50.912 0 14.058 14.059 14.058 36.853 0 50.912L323.235 90.5l-76.367-76.368c14.058 14.059 14.058 36.853 0 50.912-14.059 14.059-36.853 14.059-50.912 0-14.059-14.059-36.853-14.059-50.912 0-14.059 14.059-14.059 36.853 0 50.912 14.059 14.059 36.853 14.059 50.912 0M17.765 90.5l76.367-76.368c-42.176 42.177-42.176 110.559 0 152.736L17.765 90.5z" fill-rule="nonzero" stroke="#000" stroke-width="10"/></svg>